<?xml version="1.0" standalone="no"?>
<!DOCTYPE svg PUBLIC "-//W3C//DTD SVG 20010904//EN"
 "http://www.w3.org/TR/2001/REC-SVG-20010904/DTD/svg10.dtd">
<svg version="1.0" xmlns="http://www.w3.org/2000/svg"
 width="512.000000pt" height="512.000000pt" viewBox="0 0 512.000000 512.000000"
 preserveAspectRatio="xMidYMid meet">
<metadata>
Created by potrace 1.14, written by Peter Selinger 2001-2017
</metadata>
<g transform="translate(0.000000,512.000000) scale(0.100000,-0.100000)"
fill="#000000" stroke="none">
<path d="M2236 4183 c-2 -2 -23 -6 -47 -8 -66 -7 -111 -13 -139 -20 -14 -3
-41 -8 -60 -11 -19 -3 -43 -7 -52 -10 -9 -3 -27 -7 -40 -10 -74 -16 -110 -24
-123 -28 -5 -1 -30 -8 -55 -15 -66 -18 -294 -94 -300 -101 -3 -3 -9 -5 -15 -5
-18 -1 -248 -112 -320 -155 -27 -16 -57 -33 -65 -37 -28 -15 -105 -68 -108
-75 -2 -5 -9 -8 -15 -8 -7 0 -24 -11 -39 -25 -15 -14 -32 -25 -38 -25 -5 0
-10 -4 -10 -10 0 -5 -12 -16 -27 -24 -36 -19 -181 -151 -253 -232 -89 -97
-230 -302 -230 -333 0 -6 -4 -11 -10 -11 -5 0 -10 -4 -10 -9 0 -5 -15 -42 -34
-83 -47 -103 -66 -155 -59 -162 4 -3 2 -6 -4 -6 -5 0 -10 -6 -10 -12 -1 -7 -8
-40 -17 -73 -8 -33 -17 -73 -20 -90 -2 -16 -5 -32 -6 -35 -1 -3 -3 -16 -5 -30
-1 -14 -3 -27 -4 -30 -5 -10 -6 -160 -1 -160 3 0 5 -14 4 -30 -1 -28 6 -76 21
-145 9 -46 46 -146 66 -181 10 -18 16 -34 13 -37 -2 -2 2 -10 11 -17 8 -7 15
-19 15 -26 0 -8 5 -14 10 -14 6 0 10 -7 10 -15 0 -8 5 -15 10 -15 6 0 10 -5
10 -10 0 -21 124 -148 173 -178 15 -9 27 -20 27 -24 0 -4 6 -8 14 -8 8 0 16
-3 18 -8 3 -7 154 -85 160 -82 2 1 17 -4 33 -10 52 -20 132 -39 197 -47 110
-12 348 -6 408 11 8 3 31 7 50 10 19 3 49 9 65 12 17 4 36 7 43 7 6 0 12 3 12
7 0 3 8 7 18 8 21 2 43 7 62 15 8 3 47 15 85 28 39 12 76 27 84 33 8 6 17 10
20 10 20 -5 301 134 301 148 0 6 3 9 6 5 6 -6 108 53 187 109 26 19 50 34 55
35 24 1 79 106 76 147 -1 12 -2 31 -3 42 -2 31 -52 78 -88 84 -18 2 -35 0 -38
-4 -3 -5 -11 -7 -18 -4 -7 2 -64 -25 -127 -62 -63 -36 -155 -87 -205 -112 -49
-25 -93 -51 -97 -57 -4 -5 -8 -6 -8 -2 0 4 -10 2 -22 -5 -13 -7 -25 -13 -28
-13 -3 -1 -25 -10 -50 -21 -25 -10 -48 -18 -52 -16 -5 1 -8 -3 -8 -9 0 -6 -7
-9 -15 -6 -8 4 -17 2 -20 -3 -4 -7 -96 -38 -130 -44 -5 -1 -15 -5 -21 -9 -7
-4 -28 -8 -48 -9 -20 -2 -36 -6 -36 -10 0 -4 -8 -7 -17 -7 -10 1 -43 -4 -73
-9 -122 -22 -351 -3 -452 37 -16 6 -28 7 -28 3 0 -4 -4 -2 -8 3 -4 6 -32 22
-62 37 -30 14 -65 34 -78 45 -34 27 -102 92 -102 98 0 3 -9 15 -20 27 -10 13
-19 27 -19 32 0 5 -3 12 -8 15 -17 13 -58 107 -68 161 -2 8 -4 15 -5 15 -12 0
-16 218 -5 290 11 77 46 187 86 273 42 89 145 246 196 299 15 16 46 50 68 74
60 65 235 224 235 213 0 -3 10 5 23 16 37 36 215 150 297 191 25 12 48 27 51
32 3 5 9 8 13 8 6 -1 146 61 178 79 10 6 46 20 80 31 35 12 65 25 68 28 3 3
10 6 15 6 6 1 44 11 85 24 41 13 82 25 90 26 8 2 15 4 15 6 0 1 9 3 20 4 11 2
35 8 53 14 17 5 32 7 32 4 0 -3 6 0 13 6 8 6 16 8 20 5 3 -3 21 -1 39 4 59 19
148 25 149 10 9 -135 32 -196 87 -233 21 -14 46 -23 57 -21 56 11 72 20 92 48
19 28 21 42 21 187 0 178 -7 206 -66 239 -33 18 -195 46 -206 35z"/>
<path d="M2743 4131 c-17 -11 -32 -30 -35 -45 -9 -44 7 -2407 16 -2446 9 -39
40 -74 74 -85 18 -5 32 -13 32 -18 0 -4 4 -6 8 -3 4 2 134 7 287 11 154 3 339
8 410 10 130 4 440 12 785 20 527 13 604 16 623 27 57 30 80 105 52 168 -28
62 -56 68 -285 64 -107 -2 -319 -6 -470 -8 -151 -3 -417 -8 -590 -11 -173 -3
-395 -8 -492 -10 l-178 -3 -1 26 c0 15 -1 82 -2 150 l-2 122 45 1 c104 2 528
7 835 10 365 3 372 4 406 67 20 39 18 110 -6 146 -35 53 -27 52 -671 49 -390
-2 -600 1 -604 7 -6 9 -8 222 -14 1177 l-2 313 151 -5 c82 -3 202 -7 265 -10
246 -11 502 -18 651 -19 166 -1 164 -2 202 54 36 51 12 161 -42 189 -22 12
-83 18 -306 26 -248 10 -425 17 -705 30 -333 16 -405 15 -437 -4z"/>
</g>
</svg>
